<?xml version="1.0" encoding="UTF-8"?>
<svg width="16px" height="16px" viewBox="0 0 16 16" version="1.1" xmlns="http://www.w3.org/2000/svg" xmlns:xlink="http://www.w3.org/1999/xlink">
    <!-- Generator: Sketch 41.2 (35397) - http://www.bohemiancoding.com/sketch -->
    <title>zlicon-service</title>
    <desc>Created with Sketch.</desc>
    <defs></defs>
    <g id="mockup" stroke="none" stroke-width="1" fill="none" fill-rule="evenodd">
        <g id="社区首页" transform="translate(-716.000000, -1064.000000)" fill="#21B351">
            <g id="zb" transform="translate(101.000000, 1022.000000)">
                <g id="hot-copy" transform="translate(615.000000, 35.000000)">
                    <g id="item">
                        <g id="zlicon-service" transform="translate(0.000000, 7.000000)">
                            <path d="M15.5554525,7.97332318 C15.0805837,7.48632922 14.9755646,6.74618923 15.2940464,6.14454169 C15.5223487,5.71544213 15.5371884,5.20347413 15.3362823,4.76075235 C15.1365177,4.31916576 14.7415547,3.99563831 14.2712519,3.88779583 C13.6114581,3.73681635 13.1240326,3.17149471 13.0703816,2.49038428 C13.0327117,2.0056607 12.770164,1.56634448 12.3649273,1.30298178 C12.1115117,1.13951528 11.8204262,1.05551166 11.5270577,1.05551166 C11.3489819,1.05551166 11.1709061,1.08616163 10.9985378,1.14859675 C10.8261695,1.21103188 10.6469522,1.24168184 10.4700179,1.24168184 C9.99629053,1.24168184 9.53740283,1.02259133 9.23832676,0.627547282 C8.94495825,0.240449525 8.48949508,0.0134127184 8.00663563,0.0134127184 C7.52377618,0.0134127184 7.06831301,0.240449525 6.7749445,0.627547282 C6.47586843,1.02372651 6.01698073,1.24168184 5.54325337,1.24168184 C5.36631905,1.24168184 5.18824323,1.21103188 5.01473345,1.14859675 C4.84350669,1.08616163 4.66428936,1.05551166 4.48621353,1.05551166 C4.19284502,1.05551166 3.90175954,1.13951528 3.64948545,1.30298178 C3.24310728,1.56634448 2.9817011,2.0056607 2.94403122,2.49038428 C2.88923865,3.17149471 2.40295467,3.73681635 1.74201939,3.88779583 C1.27171657,3.99563831 0.876753516,4.31803058 0.676988968,4.76075235 C0.477224419,5.20347413 0.492064071,5.71544213 0.720366412,6.14454169 C1.03998969,6.74618923 0.933829101,7.48632922 0.458960232,7.97332318 C0.121072767,8.32068949 -0.0375973601,8.80654826 0.0308933423,9.28900147 C0.100525556,9.7703195 0.388186506,10.192608 0.809404326,10.4298614 C1.40070739,10.7624704 1.71005706,11.4435808 1.57079263,12.111069 C1.47262263,12.5867111 1.60047194,13.0839217 1.91667068,13.4517213 C2.2111807,13.7945469 2.63924759,13.9897986 3.08672018,13.9897986 C3.11868251,13.9897986 3.15064483,13.9886634 3.18374867,13.986393 C3.215711,13.9841226 3.24767333,13.9841226 3.27963566,13.9841226 C3.91888221,13.9841226 4.49534562,14.3803019 4.7270725,14.9864901 C4.89944077,15.4405638 5.27385661,15.7879301 5.73616885,15.9252873 C5.87885781,15.9684243 6.02611282,15.9888576 6.17336783,15.9888576 C6.49984018,15.9888576 6.82060497,15.8844207 7.08886022,15.6857635 C7.36168152,15.4837008 7.68358782,15.3826694 8.00663563,15.3826694 C8.32968344,15.3826694 8.65044823,15.4837008 8.92441104,15.6857635 C9.19266629,15.8855559 9.51343108,15.9888576 9.83990343,15.9888576 C9.98601693,15.9888576 10.1344134,15.9684243 10.2771024,15.9252873 C10.7405562,15.7879301 11.1138305,15.4416989 11.2861988,14.9864901 C11.5179256,14.3803019 12.0955306,13.9841226 12.7336356,13.9841226 C12.7655979,13.9841226 12.7975603,13.9852578 12.8295226,13.986393 C12.8626264,13.9886634 12.8945888,13.9897986 12.9265511,13.9897986 C13.3740237,13.9897986 13.800949,13.7945469 14.0954591,13.4517213 C14.4127993,13.0839217 14.5406486,12.5878463 14.4413371,12.111069 C14.3032142,11.4435808 14.6125639,10.7624704 15.2038669,10.4298614 C15.6250848,10.192608 15.9127457,9.77145469 15.9823779,9.28900147 C16.0520101,8.80654826 15.89334,8.32068949 15.5554525,7.97332318 Z M11.4642746,4.75394123 L12.2713233,5.55651635 L6.61741585,11.1790829 L3.59811737,8.1765211 L4.40516614,7.37394599 L6.61741583,9.57393265 L11.4642746,4.75394123 Z" id="Shape"></path>
                        </g>
                    </g>
                </g>
            </g>
        </g>
    </g>
</svg>